<svg xmlns="http://www.w3.org/2000/svg" width="11.235" height="7.852" viewBox="0 0 11.235 7.852">
  <path id="youtube" d="M11.007,6.636a1.408,1.408,0,0,0-.978-.978,33.739,33.739,0,0,0-4.4-.235,32.986,32.986,0,0,0-4.4.235,1.408,1.408,0,0,0-.978.978A14.632,14.632,0,0,0,.007,9.355a14.632,14.632,0,0,0,.244,2.708,1.408,1.408,0,0,0,.978.978,33.665,33.665,0,0,0,4.4.235,33.745,33.745,0,0,0,4.4-.235,1.408,1.408,0,0,0,.978-.978,14.632,14.632,0,0,0,.234-2.708,14.632,14.632,0,0,0-.234-2.718Zm-6.5,4.4V7.668L7.438,9.355Z" transform="translate(-0.007 -5.424)" fill="#fff"/>
</svg>
