<svg xmlns="http://www.w3.org/2000/svg" width="10.803" height="10.803" viewBox="0 0 10.803 10.803">
  <path id="instagram" d="M5.4,0C3.934,0,3.751.007,3.175.032A3.983,3.983,0,0,0,1.864.284,2.645,2.645,0,0,0,.907.907a2.636,2.636,0,0,0-.623.957A3.971,3.971,0,0,0,.032,3.175C.005,3.751,0,3.934,0,5.4S.007,7.052.032,7.628A3.985,3.985,0,0,0,.284,8.94,2.649,2.649,0,0,0,.907,9.9a2.641,2.641,0,0,0,.957.623,3.988,3.988,0,0,0,1.311.251c.576.027.759.032,2.227.032s1.651-.007,2.227-.032a4,4,0,0,0,1.311-.251,2.761,2.761,0,0,0,1.58-1.58,3.985,3.985,0,0,0,.251-1.311c.027-.576.032-.759.032-2.227s-.007-1.651-.032-2.227a4,4,0,0,0-.251-1.311A2.651,2.651,0,0,0,9.9.907,2.632,2.632,0,0,0,8.94.284,3.974,3.974,0,0,0,7.628.032C7.052.005,6.869,0,5.4,0Zm0,.972C6.843.972,7.015.979,7.585,1a2.976,2.976,0,0,1,1,.187A1.778,1.778,0,0,1,9.613,2.216a2.982,2.982,0,0,1,.186,1c.026.57.032.741.032,2.183S9.823,7.015,9.8,7.585a3.04,3.04,0,0,1-.19,1,1.715,1.715,0,0,1-.4.622,1.685,1.685,0,0,1-.621.4A3,3,0,0,1,7.575,9.8c-.573.026-.742.032-2.187.032S3.774,9.823,3.2,9.8a3.063,3.063,0,0,1-1.006-.19,1.673,1.673,0,0,1-.621-.4,1.64,1.64,0,0,1-.405-.621A3.065,3.065,0,0,1,.979,7.575c-.02-.567-.027-.742-.027-2.18S.959,3.781.979,3.207A3.062,3.062,0,0,1,1.169,2.2a1.6,1.6,0,0,1,.405-.622,1.6,1.6,0,0,1,.621-.4,2.99,2.99,0,0,1,1-.19c.574-.02.743-.027,2.187-.027L5.4.972Zm0,1.656A2.774,2.774,0,1,0,8.175,5.4,2.774,2.774,0,0,0,5.4,2.628ZM5.4,7.2A1.8,1.8,0,1,1,7.2,5.4,1.8,1.8,0,0,1,5.4,7.2ZM8.933,2.518a.648.648,0,1,1-.648-.648A.649.649,0,0,1,8.933,2.518Z" fill="#fff"/>
</svg>
