<svg xmlns="http://www.w3.org/2000/svg" width="9.386" height="10.803" viewBox="0 0 9.386 10.803">
  <path id="tiktok" d="M7.3.009C7.888,0,8.473,0,9.058,0a2.8,2.8,0,0,0,.788,1.877,3.174,3.174,0,0,0,1.909.806V4.5A4.818,4.818,0,0,1,9.864,4.06a5.562,5.562,0,0,1-.729-.419c0,1.314,0,2.629-.009,3.939a3.438,3.438,0,0,1-.608,1.774A3.354,3.354,0,0,1,5.858,10.8a3.282,3.282,0,0,1-1.837-.464,3.394,3.394,0,0,1-1.643-2.57c-.009-.225-.014-.45,0-.671A3.389,3.389,0,0,1,6.3,4.087c.009.666-.018,1.332-.018,2a1.544,1.544,0,0,0-1.972.954,1.786,1.786,0,0,0-.063.725A1.532,1.532,0,0,0,5.826,9.057a1.512,1.512,0,0,0,1.247-.725,1.039,1.039,0,0,0,.185-.477c.045-.806.027-1.607.032-2.413,0-1.814,0-3.624.009-5.433Z" transform="translate(-2.369)" fill="#fff"/>
</svg>
