<svg id="customer-support" xmlns="http://www.w3.org/2000/svg" width="17.621" height="17.662" viewBox="0 0 17.621 17.662">
  <path id="Path_39" data-name="Path 39" d="M17.155,4.439a.587.587,0,0,0-.423.64,3.525,3.525,0,0,1,0,.435V6.3a4.065,4.065,0,0,1-1.239,2.937c0-.041,0-.076,0-.117a1.48,1.48,0,0,0-.047-.217,2.291,2.291,0,0,0-.07-.27.645.645,0,0,0-.059-.2c-.023-.065-.065-.182-.1-.27s-.047-.123-.076-.188-.082-.182-.129-.27-.053-.112-.082-.164l-.176-.288a1.4,1.4,0,0,1-.076-.123c-.088-.129-.188-.258-.288-.382l-.047-.053c-.088-.106-.176-.206-.276-.305l-.117-.106-.235-.217-.147-.117c-.076-.059-.153-.117-.235-.17l-.164-.112-.241-.147-.182-.094a2.5,2.5,0,0,0-.253-.123L12.3,5.22l-.27-.117-.194-.065-.317-.053-.188-.041a2.249,2.249,0,0,1-.329-.053H5.513a5.134,5.134,0,0,0-.587.041H4.791a5.1,5.1,0,0,0-.587.117H4.127A2.314,2.314,0,0,0,3.81,5.1,4.059,4.059,0,0,1,7.863,1.46h4.817a4.112,4.112,0,0,1,1.116.153.587.587,0,0,0,.687-.335h0A.587.587,0,0,0,14.1.48,5.14,5.14,0,0,0,12.679.286H7.863A5.222,5.222,0,0,0,2.635,5.513V5.7a5.286,5.286,0,0,0-2.35,4.352v.963a5.046,5.046,0,0,0,4.9,5.057l.9,1.474a.828.828,0,0,0,.711.405h0a.846.846,0,0,0,.717-.394l.934-1.486h1.88a5.239,5.239,0,0,0,5.234-5.21v-.176a5.239,5.239,0,0,0,2.35-4.358V5.513a4.015,4.015,0,0,0-.029-.587.587.587,0,0,0-.722-.488ZM10.33,14.894H8.3a.916.916,0,0,0-.764.417l-.734,1.175-.7-1.175a.9.9,0,0,0-.769-.423A3.883,3.883,0,0,1,1.46,11.011v-.963A4.035,4.035,0,0,1,5.513,6H10.33a4.059,4.059,0,0,1,4.053,4.053v.811A4.065,4.065,0,0,1,10.33,14.894Z" transform="translate(-0.286 -0.286)" fill="#fff"/>
  <path id="Path_40" data-name="Path 40" d="M8.3,4.243H3.016a.587.587,0,1,0,0,1.175H8.3a.587.587,0,0,0,0-1.175Z" transform="translate(1.977 3.892)" fill="#fff"/>
  <path id="Path_41" data-name="Path 41" d="M8.3,5.54H3.016a.587.587,0,1,0,0,1.175H8.3a.587.587,0,0,0,0-1.175Z" transform="translate(1.977 5.262)" fill="#fff"/>
</svg>
