<svg xmlns="http://www.w3.org/2000/svg" width="8.279" height="185.352" viewBox="0 0 8.279 185.352">
  <path id="Path_99" data-name="Path 99" d="M.936,0h1V-3.18h2.22A2.357,2.357,0,0,0,6.66-5.592,2.344,2.344,0,0,0,4.152-8H.936ZM5.628-5.592a1.488,1.488,0,0,1-1.6,1.524h-2.1V-7.116h2.1A1.488,1.488,0,0,1,5.628-5.592ZM15.732,0h1.176l-2.16-3.264a2.212,2.212,0,0,0,2.076-2.328A2.331,2.331,0,0,0,14.316-8H11.1V0h1V-3.18h1.6Zm.06-5.592a1.5,1.5,0,0,1-1.6,1.536H12.1v-3.06h2.1A1.488,1.488,0,0,1,15.792-5.592Zm5.4,1.6A3.9,3.9,0,0,0,25.164.144,3.909,3.909,0,0,0,29.136-4a3.909,3.909,0,0,0-3.972-4.14A3.9,3.9,0,0,0,21.192-4ZM28.1-4a2.97,2.97,0,0,1-2.94,3.252A2.963,2.963,0,0,1,22.224-4a2.957,2.957,0,0,1,2.94-3.252A2.964,2.964,0,0,1,28.1-4Zm5.712.888A2.965,2.965,0,0,0,37.08.144,2.964,2.964,0,0,0,40.344-3.12V-8h-1v4.872A2.129,2.129,0,0,1,37.08-.744a2.129,2.129,0,0,1-2.268-2.388V-8h-1ZM45.336,0h2.736a3.879,3.879,0,0,0,4.1-4A3.9,3.9,0,0,0,48.072-8H45.336Zm1-.888V-7.116h1.74A2.927,2.927,0,0,1,51.144-4,2.943,2.943,0,0,1,48.072-.888ZM56.856,0h4.716V-.888h-3.72V-8h-1ZM66.948,0h1V-3.384L71.088-8H69.924L67.44-4.284,64.956-8H63.792l3.156,4.62Zm14.52,0h3.648a2.086,2.086,0,0,0,2.316-2.16,2,2,0,0,0-1.56-1.968,1.819,1.819,0,0,0,1.4-1.836A2.019,2.019,0,0,0,85.032-8H81.468Zm1-4.536v-2.58h2.4a1.258,1.258,0,0,1,1.38,1.3,1.243,1.243,0,0,1-1.38,1.284Zm0,3.648v-2.76h2.448A1.359,1.359,0,0,1,86.4-2.268a1.324,1.324,0,0,1-1.488,1.38Zm9.672-2.22A2.965,2.965,0,0,0,95.4.144,2.964,2.964,0,0,0,98.664-3.12V-8h-1v4.872A2.129,2.129,0,0,1,95.4-.744a2.129,2.129,0,0,1-2.268-2.388V-8h-1ZM103.656,0h1V-8h-1Zm5.988,0h4.716V-.888h-3.72V-8h-1Zm10.02,0h1V-7.116H123.2V-8h-6.072v.888h2.532Zm14.2,0h1V-8h-1Zm11.652,0h.96V-8h-1V-1.68L140.868-8h-1.02V0h1V-6.456Zm17.832,0h.96V-8h-1V-1.68L158.7-8h-1.02V0h1V-6.456Zm8.28,0h1V-3.384L175.764-8H174.6l-2.484,3.72L169.632-8h-1.164l3.156,4.62ZM183.2.144a3.64,3.64,0,0,0,3.084-1.584l-.852-.468A2.686,2.686,0,0,1,183.2-.744,3.074,3.074,0,0,1,180.156-4,3.067,3.067,0,0,1,183.2-7.248a2.717,2.717,0,0,1,2.232,1.164l.84-.468A3.6,3.6,0,0,0,183.2-8.136,4,4,0,0,0,179.124-4,4,4,0,0,0,183.2.144Z" transform="translate(8.136 186.288) rotate(-90)" fill="#fff"/>
</svg>
