<svg id="responsibly-sourced" xmlns="http://www.w3.org/2000/svg" width="20.056" height="19.254" viewBox="0 0 20.056 19.254">
  <path id="Path_42" data-name="Path 42" d="M20.056,5.937v-.2a5.777,5.777,0,0,0-1.725-3.991l-.02-.02A5.952,5.952,0,0,0,14.12,0h0a5.848,5.848,0,0,0-4.091,1.645A5.848,5.848,0,0,0,5.937,0,5.968,5.968,0,0,0,1.725,1.745,5.8,5.8,0,0,0,.02,5.716c-.02,0-.02.02-.02.04v5.195a.408.408,0,0,0,.12.3l5.134,5.134v2.427a.421.421,0,0,0,.842,0V16.205a.408.408,0,0,0-.12-.3L.842,10.79V6.258a1.279,1.279,0,0,1,.862,1.2V9.747a.408.408,0,0,0,.12.3l.8.8L5.275,13.5a.408.408,0,0,0,.3.12.442.442,0,0,0,.3-.12.436.436,0,0,0,0-.6L3.55,10.57a.841.841,0,0,1,.321-.08,1.1,1.1,0,0,1,.7.241L7.882,13.7v5.094a.421.421,0,1,0,.842,0V17.108l1.023.923a.375.375,0,0,0,.281.1.479.479,0,0,0,.281-.1l1.023-.9v1.685a.411.411,0,0,0,.421.421h0a.411.411,0,0,0,.421-.421V13.718L15.5,10.75a.97.97,0,0,1,.7-.241.841.841,0,0,1,.321.08L14.18,12.9a.436.436,0,0,0,0,.6.408.408,0,0,0,.3.12.442.442,0,0,0,.3-.12l2.647-2.647.8-.8a.408.408,0,0,0,.12-.3V7.461a1.279,1.279,0,0,1,.862-1.2V10.79l-5.134,5.134a.408.408,0,0,0-.12.3v2.607a.411.411,0,0,0,.421.421h0a.411.411,0,0,0,.421-.421V16.406l5.134-5.114a.408.408,0,0,0,.12-.3V5.937Zm-1.925.04a2.091,2.091,0,0,0-.622,1.5V9.587l-.4.4a1.724,1.724,0,0,0-.882-.3,1.831,1.831,0,0,0-1.3.461l-3.45,3.069a.473.473,0,0,0-.14.321V16l-1.3,1.143-1.3-1.163V13.518a.473.473,0,0,0-.14-.321l-3.47-3.089a1.831,1.831,0,0,0-1.3-.461,1.724,1.724,0,0,0-.882.3l-.4-.4V7.461A2.128,2.128,0,0,0,.862,5.4,5.079,5.079,0,0,1,2.327,2.327a5.084,5.084,0,0,1,7.18,0l.2.2a.436.436,0,0,0,.6,0l.2-.2A5.019,5.019,0,0,1,14.1.842h0a5.019,5.019,0,0,1,3.59,1.484l.02.02h0a5.112,5.112,0,0,1,1.444,3.069A2.081,2.081,0,0,0,18.131,5.977Z" transform="translate(0 0)" fill="#fff"/>
</svg>
