<svg xmlns="http://www.w3.org/2000/svg" width="15.765" height="15.765" viewBox="0 0 15.765 15.765">
  <path id="Icon_simple-instagram" data-name="Icon simple-instagram" d="M7.883,0C5.741,0,5.474.01,4.633.047A5.812,5.812,0,0,0,2.719.414a3.86,3.86,0,0,0-1.4.909,3.846,3.846,0,0,0-.909,1.4A5.8,5.8,0,0,0,.047,4.633C.008,5.474,0,5.741,0,7.882s.01,2.409.047,3.25a5.816,5.816,0,0,0,.367,1.913,3.866,3.866,0,0,0,.909,1.4,3.855,3.855,0,0,0,1.4.909,5.82,5.82,0,0,0,1.913.367c.841.039,1.108.047,3.25.047s2.409-.01,3.25-.047a5.833,5.833,0,0,0,1.913-.367,4.028,4.028,0,0,0,2.306-2.306,5.816,5.816,0,0,0,.367-1.913c.039-.841.047-1.108.047-3.25s-.01-2.409-.047-3.25a5.829,5.829,0,0,0-.367-1.913,3.869,3.869,0,0,0-.909-1.4,3.841,3.841,0,0,0-1.4-.909A5.8,5.8,0,0,0,11.132.047C10.291.008,10.024,0,7.883,0Zm0,1.419c2.1,0,2.355.011,3.186.047a4.343,4.343,0,0,1,1.463.273,2.594,2.594,0,0,1,1.5,1.5A4.352,4.352,0,0,1,14.3,4.7c.037.832.046,1.081.046,3.186s-.01,2.355-.049,3.186a4.436,4.436,0,0,1-.277,1.463,2.5,2.5,0,0,1-.591.908,2.459,2.459,0,0,1-.906.589,4.384,4.384,0,0,1-1.468.271c-.837.037-1.083.046-3.192.046s-2.356-.01-3.192-.049A4.47,4.47,0,0,1,3.2,14.02a2.441,2.441,0,0,1-.906-.591,2.393,2.393,0,0,1-.591-.906,4.473,4.473,0,0,1-.276-1.468c-.03-.828-.04-1.083-.04-3.182s.011-2.356.04-3.193a4.468,4.468,0,0,1,.276-1.467A2.337,2.337,0,0,1,2.3,2.3a2.331,2.331,0,0,1,.906-.59,4.363,4.363,0,0,1,1.459-.277C5.5,1.409,5.745,1.4,7.853,1.4l.03.02Zm0,2.416A4.048,4.048,0,1,0,11.93,7.882,4.047,4.047,0,0,0,7.883,3.835Zm0,6.675A2.627,2.627,0,1,1,10.51,7.882,2.627,2.627,0,0,1,7.883,10.51Zm5.154-6.835a.946.946,0,1,1-.946-.945A.947.947,0,0,1,13.036,3.675Z" fill="#394248"/>
</svg>
