<svg id="full-transparency" xmlns="http://www.w3.org/2000/svg" width="18.117" height="18.143" viewBox="0 0 18.117 18.143">
  <path id="Path_37" data-name="Path 37" d="M12.136,6.216a8.383,8.383,0,0,1,1.013-.19Q13.277,6.01,13.4,6l-.075-.8-.178.019h-.215s0,0,0,0h-.2l-.009,0h-.03l-.01,0h-.012l-.01,0h-.008l-.013,0h0l-.014,0h-.007l-.014,0h0q-.335.059-.66.141l.2.781ZM9.783,7.222a8.2,8.2,0,0,1,1.138-.595L10.6,5.885h0l0,0h0l-.01,0h0l0,0h0l0,0h0l0,0h0l0,0h0l0,0h-.006l0,0h0l0,0h-.006l0,0h0l0,0h0l0,0h0l0,0h0l0,0h0l0,0H10.5l0,0h-.014l0,0h0l0,0h-.015l0,0h-.006l0,0h-.02l0,0h-.005l0,0h0l0,0H10.4l0,0h0l-.005,0h0l-.006,0h0l0,0h0l-.006,0h0l-.009,0h0l-.005,0h0l-.006,0h0l-.009,0h0l-.009,0h0l-.006,0h0l-.009,0h0l-.009,0h0l-.006,0h0l-.009,0h0l-.009,0h0l-.006,0h0l-.009,0h0l-.009,0h0l-.006,0h0l0,0h0l-.009,0h0l-.009,0h0l-.006,0h0l-.009,0h0l-.009,0h0l0,0h0l-.005,0h0l-.008,0h0l0,0h-.005l0,0h0l-.008,0h0l0,0h-.005l0,0h-.006l0,0h0l0,0h-.006s0,0,0,0h-.007l0,0h0l0,0h-.007l0,0h-.007l0,0h0l0,0h0l0,0h-.007l0,0h-.006l0,0h0l0,0h0l0,0h0l0,0h0l0,0h0l0,0h0l0,0h0l0,0h0l0,0h0l0,0h0l0,0h0l0,0h0l0,0h0l0,0h0l0,0h0l0,0h0l0,0h0l0,0h0l0,0h0l0,0h0l-.009,0h0L9.9,6.22h0q-.282.15-.551.319l.429.682ZM7.851,8.9a8.332,8.332,0,0,1,.9-.916l-.529-.608a9.07,9.07,0,0,0-.988,1.005l.617.519ZM6.523,11.094A8.347,8.347,0,0,1,7.1,9.947l-.689-.418-.007.011s0,0,0,0l0,0h0v0l0,0,0,0v0l0,0v0l0,0,0,0v0l0,0h0l0,0h0l0,0h0l0,0h0l0,0h0l0,0h0l0,0h0l0,0h0l0,0h0l0,0h0l0,0h0l-.005.009h0a9.086,9.086,0,0,0-.573,1.154l.746.306Zm-.592,2.49a8.189,8.189,0,0,1,.2-1.268l-.785-.186q-.067.283-.116.572h0l0,.01h0s0,0,0,.006h0l0,.01h0v.01s0,0,0,0v.006h0v0s0,0,0,0a.043.043,0,0,1,0,.006h0v0s0,0,0,0v.005s0,0,0,0v.009h0v.009a0,0,0,0,0,0,0V12.8a.006.006,0,0,1,0,0v0a.008.008,0,0,0,0,0,.02.02,0,0,0,0,0v0s0,0,0,0v0a.027.027,0,0,1,0,0v0s0,0,0,0v.006s0,0,0,0a.027.027,0,0,0,0,0v0s0,0,0,0a.006.006,0,0,0,0,0,.008.008,0,0,1,0,0v0a.015.015,0,0,1,0,0,.008.008,0,0,0,0,0,.011.011,0,0,0,0,0v0s0,0,0,0h0a.008.008,0,0,1,0,0v0a.024.024,0,0,0,0,0v0a.009.009,0,0,0,0,0v0a.03.03,0,0,1,0,0v0a.013.013,0,0,1,0,0,0,0,0,0,1,0,0,.033.033,0,0,1,0,0,0,0,0,0,0,0,0v.006a.02.02,0,0,0,0,0,.005.005,0,0,0,0,0v0h0a.03.03,0,0,0,0,0h0v0h0a.04.04,0,0,0,0,0h0v0h0a.039.039,0,0,0,0,0h0v0h0a.029.029,0,0,1,0,0s0,0,0,0a.039.039,0,0,1,0,0h0a.012.012,0,0,1,0,0h0s0,0,0,.005h0v.005s0,0,0,0v0h0v0h0a.042.042,0,0,0,0,.005h0a.1.1,0,0,0,0,.01h0s0,.007,0,.01h0v.005h0v.005h0a.023.023,0,0,0,0,.005h0s0,.007,0,.011h0c0,.013,0,.026,0,.038h0c-.014.113-.027.227-.037.342h0s0,.007,0,.011h0s0,.007,0,.011h0c0,.005,0,.011,0,.017h0s0,.007,0,.011h0s0,.007,0,.011h0a.047.047,0,0,0,0,.005h0s0,.007,0,.01h0a.088.088,0,0,1,0,.01h0s0,0,0,.005h0v0h0l.8.062Zm-.585,2.741.785-.186a8.433,8.433,0,0,1-.16-.889c-.016-.127-.029-.255-.039-.381l-.8.063L5.135,15h0s0,0,0,0h0a0,0,0,0,0,0,0v0a0,0,0,0,0,0,0,.007.007,0,0,0,0,0,0,0,0,0,0,0,0,.013.013,0,0,1,0,0h0c.007.083.016.167.026.25h0c0,.007,0,.015,0,.022h0v0h0v0h0a.014.014,0,0,1,0,0h0a.015.015,0,0,0,0,0h0a.014.014,0,0,0,0,0h0a.016.016,0,0,0,0,0h0a.036.036,0,0,1,0,.007h0v0h0a.011.011,0,0,1,0,0s0,0,0,0v0h0a.008.008,0,0,0,0,0h0v0h0v0h0v0h0s0,0,0,0h0a.024.024,0,0,1,0,0h0v.014a0,0,0,0,0,0,0,.008.008,0,0,0,0,0v0a.005.005,0,0,0,0,0,0,0,0,0,1,0,0,.006.006,0,0,1,0,0v0a.006.006,0,0,0,0,0V15.4a0,0,0,0,1,0,0v0a.006.006,0,0,0,0,0v0s0,0,0,0a.006.006,0,0,1,0,0,.022.022,0,0,1,0,0,.005.005,0,0,1,0,0s0,0,0,0v.008a.008.008,0,0,1,0,0v0a.006.006,0,0,0,0,0v.006s0,0,0,0v0a0,0,0,0,0,0,0v0a0,0,0,0,1,0,0v0h0a.007.007,0,0,1,0,0,0,0,0,0,1,0,0v0a.006.006,0,0,0,0,0,.009.009,0,0,0,0,0h0a.008.008,0,0,0,0,0h0a.078.078,0,0,1,0,.009h0v0h0v0h0v0a0,0,0,0,0,0,0s0,0,0,0h0v0a0,0,0,0,1,0,0v0s0,0,0,0v0a0,0,0,0,0,0,0s0,0,0,0h0a.014.014,0,0,0,0,0h0s0,0,0,0h0v0h0c0,.007,0,.014,0,.021h0v0h0a.014.014,0,0,0,0,0h0v0h0v0h0v0h0a.015.015,0,0,0,0,0h0a.008.008,0,0,0,0,0h0v0h0l.006.043h0v0h0a.02.02,0,0,1,0,0h0c.014.091.029.182.046.272h0a.043.043,0,0,1,0,.007h0v0h0v0h0c0,.009,0,.019.005.028h0v0h0a.02.02,0,0,0,0,0h0v0h0v0h0a.007.007,0,0,1,0,0h0v0h0v0h0v0h0v0h0a.009.009,0,0,1,0,0h0v0h0v0h0s0,0,0,0a0,0,0,0,0,0,0,0,0,0,0,0,0,0v0h0v0h0v0a0,0,0,0,1,0,0v0a0,0,0,0,0,0,0v0h0v0h0v0a0,0,0,0,1,0,0v0h0v0s0,0,0,0v0h0v0h0c.02.1.042.2.066.3Zm1.064,2.6.689-.418a8.231,8.231,0,0,1-.577-1.146l-.746.305h0l0,0h0l0,.009h0l0,0h0l0,0h0l0,0h0l0,.009h0l0,.01h0l0,0h0l0,.01h0l0,.01h0l0,.005h0a8.946,8.946,0,0,0,.6,1.177Zm1.812,2.148.529-.609a8.392,8.392,0,0,1-.9-.915l-.616.52a9.114,9.114,0,0,0,.99,1ZM10.6,22.569l.318-.741a8.308,8.308,0,0,1-1.138-.6l-.429.683q.252.158.513.3h0l.01.005h0l.014.008h0l.01.005h0l0,0h0l.009,0h0l.009.005h0l0,0h0l.009,0h0l0,0h0l0,0h0l0,0h0l.009,0h0l0,0h0l0,0h0l0,0h0l0,0h0l0,0h0l0,0h0l.008,0h0l0,0h0l0,0h0l0,0h0l0,0h0l0,0h0l0,0h0l0,0h0l0,0h0l0,0h0l0,0h0l0,0h0l.009,0h0l0,0h0l0,0h0l0,0h0l0,0h0l0,0h0l0,0h0l0,0h0l0,0h0l0,0h0l0,0h0l0,0h0l0,0h0l0,0h0l0,0h0l0,0h0l0,0h0l0,0h0l0,0h0l0,0h0l.009,0h0l0,0h0l0,0h0l0,0h0l.008,0h0l0,0h0l0,0h0l0,0h0l.009,0h0l0,0h0l.009,0h0l0,0h0l0,0h0l0,0h0l.009,0h0l.005,0h0l0,0h0l0,0h0l.009,0h0l0,0h0l.01,0h0l.01,0h0l.015.007h0l.015.007h0l.262.116Zm2.724.692.074-.8a8.224,8.224,0,0,1-1.265-.218l-.2.781c.069.018.138.034.207.05h0l.01,0h0l.01,0h.2l.01,0h0l.01,0H12.4l.01,0h0l.01,0h0c.1.02.205.039.309.055h0l.027,0h0l.01,0h0l.017,0h0l.01,0h.029l.009,0h.143l.01,0h0c.113.014.228.027.345.038Z" transform="translate(-5.127 -5.156)" fill="#fff"/>
  <path id="Path_38" data-name="Path 38" d="M50,5V23.143A9.071,9.071,0,1,0,50,5Z" transform="translate(-40.954 -5)" fill="#fff"/>
</svg>
