<svg xmlns="http://www.w3.org/2000/svg" width="6.9" height="46.57" viewBox="0 0 6.9 46.57">
  <path id="Path_100" data-name="Path 100" d="M.38-.94A3.3,3.3,0,0,0,2.94.12C4.74.12,5.4-.87,5.4-1.84c0-1.4-1.24-1.74-2.33-2.03-.85-.23-1.62-.43-1.62-1.1,0-.63.57-1.06,1.37-1.06a2.552,2.552,0,0,1,1.93.8l.5-.61a3.136,3.136,0,0,0-2.37-.93C1.57-6.77.59-6.02.59-4.92c0,1.31,1.19,1.61,2.26,1.89.88.24,1.69.46,1.69,1.26,0,.51-.38,1.15-1.57,1.15a2.819,2.819,0,0,1-2.1-.95ZM8.97-3.33A3.252,3.252,0,0,0,12.28.12a3.258,3.258,0,0,0,3.31-3.45,3.258,3.258,0,0,0-3.31-3.45A3.252,3.252,0,0,0,8.97-3.33Zm5.76,0A2.475,2.475,0,0,1,12.28-.62,2.469,2.469,0,0,1,9.83-3.33a2.464,2.464,0,0,1,2.45-2.71A2.47,2.47,0,0,1,14.73-3.33ZM22.62.12A3.033,3.033,0,0,0,25.19-1.2l-.71-.39a2.239,2.239,0,0,1-1.86.97,2.562,2.562,0,0,1-2.54-2.71,2.556,2.556,0,0,1,2.54-2.71,2.264,2.264,0,0,1,1.86.97l.7-.39a3,3,0,0,0-2.56-1.32,3.329,3.329,0,0,0-3.4,3.45A3.329,3.329,0,0,0,22.62.12ZM28.85,0h.83V-6.67h-.83Zm9.78,0h.92L36.86-6.67H35.83L33.15,0h.92l.59-1.48h3.38ZM36.35-5.93l1.44,3.71H34.9ZM43.02,0h3.93V-.74h-3.1V-6.67h-.83Z" transform="translate(6.78 46.95) rotate(-90)" fill="#fff"/>
</svg>
