<svg xmlns="http://www.w3.org/2000/svg" width="64.984" height="48.136" viewBox="0 0 64.984 48.136">
  <path id="Path_29" data-name="Path 29" d="M18.641-43.712A14.426,14.426,0,0,0,33.282-58.152,14.47,14.47,0,0,0,18.641-72.794a41.526,41.526,0,0,1,4.011-16.848c.6-1.2,0-2.206-1.4-2.206H18.641a2.792,2.792,0,0,0-2.206,1C11.621-85.43,4-73.6,4-60.158,4-50.13,10.618-43.712,18.641-43.712Zm35.7,0A14.426,14.426,0,0,0,68.983-58.152,14.47,14.47,0,0,0,54.342-72.794a41.526,41.526,0,0,1,4.011-16.848c.6-1.2,0-2.206-1.4-2.206H54.342a2.792,2.792,0,0,0-2.206,1C47.322-85.43,39.7-73.6,39.7-60.158,39.7-50.13,46.319-43.712,54.342-43.712Z" transform="translate(-3.999 91.848)" fill="#dfe8ea"/>
</svg>
