<svg xmlns="http://www.w3.org/2000/svg" width="13.959" height="16.067" viewBox="0 0 13.959 16.067">
  <path id="Icon_simple-tiktok" data-name="Icon simple-tiktok" d="M9.7.013C10.577,0,11.447.007,12.317,0a4.17,4.17,0,0,0,1.172,2.792,4.721,4.721,0,0,0,2.838,1.2v2.7a7.166,7.166,0,0,1-2.812-.649,8.271,8.271,0,0,1-1.085-.623c-.007,1.955.007,3.91-.013,5.858a5.113,5.113,0,0,1-.9,2.638A4.988,4.988,0,0,1,7.558,16.06a4.881,4.881,0,0,1-2.731-.69,5.048,5.048,0,0,1-2.444-3.823c-.013-.335-.02-.669-.007-1A5.04,5.04,0,0,1,8.22,6.079c.013.991-.027,1.982-.027,2.972A2.3,2.3,0,0,0,5.261,10.47a2.656,2.656,0,0,0-.094,1.078,2.278,2.278,0,0,0,2.343,1.921,2.249,2.249,0,0,0,1.854-1.078,1.545,1.545,0,0,0,.274-.71c.067-1.2.04-2.39.047-3.588C9.693,5.4,9.68,2.7,9.7.013Z" transform="translate(-2.369)" fill="#394248"/>
</svg>
