<svg xmlns="http://www.w3.org/2000/svg" width="16.709" height="11.677" viewBox="0 0 16.709 11.677">
  <path id="Icon_simple-youtube" data-name="Icon simple-youtube" d="M16.367,7.227a2.094,2.094,0,0,0-1.454-1.454,50.178,50.178,0,0,0-6.544-.349,49.058,49.058,0,0,0-6.544.349A2.094,2.094,0,0,0,.371,7.227,21.761,21.761,0,0,0,.007,11.27,21.761,21.761,0,0,0,.371,15.3a2.094,2.094,0,0,0,1.454,1.454,50.068,50.068,0,0,0,6.544.35,50.187,50.187,0,0,0,6.544-.35A2.094,2.094,0,0,0,16.367,15.3a21.761,21.761,0,0,0,.348-4.027,21.761,21.761,0,0,0-.348-4.043ZM6.7,13.771V8.761l4.363,2.509Z" transform="translate(-0.007 -5.424)" fill="#394248"/>
</svg>
