<svg xmlns="http://www.w3.org/2000/svg" viewBox="0 0 678.12 155.48"><defs><style>.cls-1{fill:#394248;}</style></defs><g id="Layer_2" data-name="Layer 2"><g id="Layer_1-2" data-name="Layer 1"><path class="cls-1" d="M91.88,100.21q0,29.13-31.09,29.13-13.33,0-20.58-8.13T33,99.07V.17H0V102q0,27.11,16.48,40.2T61.26,155.3q30.63,0,47.23-13.88t16.6-41.21V.17H91.89v100Z"/><polygon class="cls-1" points="230.3 99.95 168.58 0.11 134.21 0.11 134.21 155.37 164.37 155.37 164.37 51.09 230.78 155.37 260.7 155.37 260.7 0.11 230.3 0.11 230.3 99.95"/><rect class="cls-1" x="268.36" y="0.11" width="32.5" height="155.25"/><path class="cls-1" d="M672.74,44.19a69.8,69.8,0,0,0-14.85-23.85A63.61,63.61,0,0,0,635.1,5.26a78.15,78.15,0,0,0-29-5.26H546V135.34L498.32,0H460.67l-45.4,127.2H341.9V.22H309.41V155.48l130.23-.24,11-32h57.28l9.83,32H611a64.46,64.46,0,0,0,27.36-5.73,61.82,61.82,0,0,0,21.27-16.13,73.35,73.35,0,0,0,13.68-25A103.6,103.6,0,0,0,678.12,76Q678.12,58.21,672.74,44.19ZM459.05,96.55l19.86-61.72h.24l19.41,61.72Zm176.28,19.07q-9.58,13.2-30.87,13.21H577.58V26.89h24.07a64.33,64.33,0,0,1,19.88,2.68A30,30,0,0,1,635,38.22a35.7,35.7,0,0,1,7.59,15.31A93.44,93.44,0,0,1,644.92,76Q644.92,102.4,635.33,115.62Z"/></g></g></svg>