<svg xmlns="http://www.w3.org/2000/svg" viewBox="0 0 772.9 167.67"><defs><style>.cls-1{fill:#394248;}</style></defs><g id="Layer_2" data-name="Layer 2"><g id="Layer_1-2" data-name="Layer 1"><path class="cls-1" d="M.06,79q0-28.39,0-56.78c0-4.15,0-4.17,4-4.18,11.25,0,22.5-.17,33.75.07,12.51.26,24,3.7,33,12.87,6.87,6.94,10.81,15.53,12.6,25,3.19,16.74,3.36,33.57-.75,50.19-3.45,14-10.9,25.09-25,30.22a55.08,55.08,0,0,1-16.38,3.32c-12.66.51-25.35.16-38,.3-2.59,0-3.36-.85-3.35-3.4C.08,117.33.05,98.14.05,79Zm10.36-.13q0,24.9,0,49.8c0,1.53-.11,2.74,2.12,2.71,10.08-.14,20.19.23,30.25-.28,10.95-.55,19.57-5.55,25-15.38,4.3-7.72,5.81-16.15,6.57-24.84,1.13-13,1-25.89-3-38.39C66.21,36.52,54.7,27.25,37.74,26.65c-8-.28-16.07,0-24.1-.17-2.62-.06-3.29.8-3.27,3.34C10.47,46.15,10.42,62.48,10.42,78.82Z"/><path class="cls-1" d="M167,70.21c-.09-11.33-7-20.18-17.9-23.27-13.7-3.89-27.23-2.5-40.43,2.26-5.27,1.9-4.48,1.06-4.5,7.25,0,3.12.26,3.29,3.19,2.11a67.53,67.53,0,0,1,32.5-4.76c9.65,1,16.57,6.84,17.24,15.38.53,6.79.11,13.67.11,21.09a30.15,30.15,0,0,0-13.81-11.71,40.08,40.08,0,0,0-22-2.58c-11.63,1.67-20.93,7-25.86,18.24-3.39,7.7-3.42,15.76-1.7,23.87,2.09,9.85,8,16.54,17.27,20.28a41.13,41.13,0,0,0,24.18,1.8c6.66-1.39,12.77-4,17.5-9.12,1.63-1.75,3-3.74,5-6.21,0,3.29-.13,5.88,0,8.45.49,8-.38,6.23,7.11,6.51,1.8.07,2.28-.7,2.28-2.38C167.07,115,167.18,92.61,167,70.21Zm-25.84,60.9c-3.79,1.35-7.92,1.76-11.91,2.6-4.12-.87-8.13-1.34-11.86-2.6-8-2.68-12.85-8.39-14.23-16.8-1.43-8.69-.83-17,6-23.56,5.46-5.33,12.24-7.39,19.72-7.42,10.77,0,19.84,3.56,25.61,13.08S158.57,124.88,141.17,131.11Z"/><path class="cls-1" d="M278.43,127.06c2.65-6.12,5.05-11.65,7.44-17.19,8.52-19.7,17.09-39.39,25.51-59.14,1.08-2.55,2.5-3.43,5.22-3.35,6.46.19,6.53.1,3.93,6q-18.09,41.1-36.22,82.18c-4.28,9.71-8.59,19.39-12.76,29.14-.9,2.11-2,3.18-4.4,2.92a32.17,32.17,0,0,0-4.28,0c-2.15.06-2.69-.68-1.75-2.75,3.54-7.88,7.05-15.78,10.37-23.75a6.76,6.76,0,0,0,0-4.71q-17-40-34.21-79.85c-.95-2.21-1.82-4.45-2.8-6.64-.89-2-.27-2.72,1.86-2.8,7.47-.29,7.56-.38,10.52,6.51Q262.11,89,277.19,124.41C277.49,125.11,277.83,125.79,278.43,127.06Z"/><path class="cls-1" d="M213,78.89v-57c0-3.9,0-3.9,3.74-3.91,6.45,0,6.45,0,6.45,6.51q0,55.8,0,111.58c0,3.78,0,3.78-3.83,3.77-6.39,0-6.38,0-6.38-6.37q0-27.3,0-54.59Z"/><path class="cls-1" d="M196.35,93.86q0,21.3,0,42.58c0,3.61-.16,3.8-3.81,3.72-7.23-.16-6.76,1.29-6.75-6.68q0-41,0-81.95c0-4.6,0-4.63,4.49-4.59,6.63.06,6-1,6.05,6C196.38,66.55,196.35,80.21,196.35,93.86Z"/><path class="cls-1" d="M451.81,26.35v36.3h17.71c-.89,1.55-1.39,2.56-2,3.47-4.79,7-9.65,13.93-14.38,21A7.61,7.61,0,0,0,451.87,91c-.05,8.74,0,17.49.2,26.23a5.17,5.17,0,0,0,1.89,3.44c3.11,2.38,6.47,4.43,9.67,6.71,1.88,1.33,1.79,2.21-.08,3.36-8.05,5-16.12,9.89-24.11,14.93a3.63,3.63,0,0,1-4.17.13Q417.6,136.35,399.84,127c-3.84-2-4.11-4.09-.21-5.85,5.36-2.41,7-6,6.47-11.73-.54-5.39-.15-10.87-.07-16.32,0-1.79-.5-2.57-2.43-2.53-4.37.11-8.75.09-13.12,0-1.59,0-2.2.52-2.18,2.17.13,10,.22,20,.18,30,0,2.06,1.3,2.78,2.62,3.65,5.73,3.79,5.68,4.67-.34,8q-10.17,5.64-20.25,11.46a4.08,4.08,0,0,1-4.45.11c-9.77-5.17-19.58-10.25-29.38-15.36a19,19,0,0,1-1.86-1.06c-2.13-1.44-2.16-2.9.05-4.32a63.24,63.24,0,0,1,6.46-3.77c2.05-1,2.73-2.38,2.72-4.63C344,97.4,344,77.94,344,58.48c0-4.55-.07-9.11,0-13.66a4.29,4.29,0,0,0-2-4c-6-4.09-11.84-8.28-17.78-12.38-2.71-1.87-2.77-3.14,0-4.9,8.17-5.26,16.39-10.47,24.51-15.8,1.77-1.16,3-1,4.78.07,7.17,4.33,14.46,8.46,21.81,12.49a4.5,4.5,0,0,0,3.64-.13q15.41-8.07,30.65-16.42a5.86,5.86,0,0,1,6.46,0c7.65,4.41,15.45,8.56,23.12,12.93,2,1.12,3.47,1.32,5.53,0C452.72,11.35,461,6.38,469.08,1.17c2.12-1.36,3.85-1.63,6.11-.28,10,6,20,11.78,30,17.58a4.77,4.77,0,0,1,2.64,4.73q-.15,42.44,0,84.88c0,6.94,3.42,12.22,9.06,16.11,3.83,2.64,3.86,4,.09,6.65-7,4.95-14,9.87-20.92,14.9a3.79,3.79,0,0,1-4.15.58c-10.3-4.17-17.89-11-21.19-21.85a18.67,18.67,0,0,1-.55-5.29c0-26-.08-51.95,0-77.92,0-3.9-.79-6.49-4.79-8.08C460.83,31.36,456.56,28.77,451.81,26.35ZM388.25,82.86l.52.23C392.91,77,397,70.81,401.24,64.78c.76-1.07,2.3-1.57,3.4-2.43.53-.42,1.23-1.08,1.23-1.63.07-7.58.09-15.17-.07-22.75a4.17,4.17,0,0,0-1.74-3c-2.82-1.67-5.85-3-8.8-4.46-2.25-1.12-4.49-2.27-7-3.53Zm-3,39.24c0-1.2,0-2.16,0-3.11q0-17.4-.07-34.78c0-18.37,0-36.74-.13-55.11A7.6,7.6,0,0,0,384,26.52c-1,.79-2.2,1.41-2.8,2.42-.48.81-.22,2.08-.22,3.15-.1,28-.13,56-.38,84C380.56,119.43,381.59,121.23,385.24,122.1Zm63.45-79h-.13q0-8.28,0-16.58c0-1.21.07-2.42-1.62-2.5s-1.77,1.12-1.76,2.34q.06,16.86.11,33.71c0,1.12,0,2.15,1.61,2.14s1.81-.92,1.8-2.25C448.67,54.29,448.69,48.67,448.69,43.06Zm0,73.45V114q0-10.56.07-21.13c0-1.27.18-2.56-1.75-2.62s-1.73,1.35-1.73,2.56c0,6.59.08,13.19,0,19.79C445.24,114.88,445.85,116.26,448.72,116.51Z"/><path class="cls-1" d="M521.35,109.39c.84-5.83,1.54-11.84,2.63-17.79,1.56-8.51,7.16-14.56,13-20.43,10.78-10.84,23.73-18.51,37.17-25.45,5.38-2.78,10.91-5.28,16.45-7.74a4.61,4.61,0,0,1,3.48,0c12.22,6.26,24.38,12.63,36.54,19a14.24,14.24,0,0,1,2.45,1.62c2.34,2,2.59,4.44,0,5.95-5.08,3-6,7.28-5.79,12.8.41,11.23.15,22.49.08,33.74a4.33,4.33,0,0,0,2.19,4.17c4.13,2.63,8.18,5.41,12.21,8.21,3.29,2.29,3.32,4.23.17,6.69-6.39,5-12.82,10-19.17,15a3.71,3.71,0,0,1-4.58.42q-17.26-8.53-34.65-16.78a3.67,3.67,0,0,0-3.21.33c-6.67,5.22-13.17,10.66-19.86,15.86a6.25,6.25,0,0,1-4.32,1.25c-15.58-2.54-27.66-9.84-32.94-25.57C522.07,117.21,522,113.37,521.35,109.39Zm63.7-12.45h.15c0-7.59.06-15.17-.07-22.75a4.65,4.65,0,0,0-1.55-3.28c-5.31-3.75-10.75-7.34-16.21-10.87a3.19,3.19,0,0,0-2.64-.32c-4.07,2-7.69,4.65-9.93,8.65-5.83,10.39-5.74,21.21-1.19,31.9,3.88,9.11,11.36,15.17,19.46,20.41a21.14,21.14,0,0,0,6.55,2.82c3.39.77,5.42-1.15,5.42-4.62C585.06,111.57,585.05,104.25,585.05,96.94Z"/><path class="cls-1" d="M758.32,62q0,25.83,0,51.66c0,3,.23,5.33,3.69,6.77s6.32,4,9.45,6c1.79,1.17,2,2.59.31,3.89q-9.74,7.74-19.63,15.28a2.83,2.83,0,0,1-2.42.09q-17.06-7.67-34-15.5a11.54,11.54,0,0,1-2.46-1.57c-1.43-1.18-1.6-2.5-.17-3.86a1.62,1.62,0,0,1,.18-.19c5.2-3.41,5.77-8.47,5.72-14.18-.19-24.89-.07-49.79-.11-74.68,0-2.31-.26-4.63-.49-6.93-.33-3.35-2.89-4.9-5.36-6.56a15.18,15.18,0,0,1-2.28-2.32,10.21,10.21,0,0,1,2.54-1.9C726,13.9,738.86,9.87,751.68,5.81a4.91,4.91,0,0,1,.5-.17c6.56-1.45,6.54-.71,6.5,5-.09,17.13,0,34.26,0,51.39Z"/><path class="cls-1" d="M665.36,41.48a21.25,21.25,0,0,1,2.24,1q15.82,8.68,31.62,17.39a22.1,22.1,0,0,1,2.34,1.29c1.49,1.07,1.69,2.44.1,3.44s-3.72,1.69-5.46,2.73a5.68,5.68,0,0,0-2.26,2.45,9.62,9.62,0,0,0-.47,3.69c.2,14.53.39,29.07.75,43.6,0,1,1.18,2.31,2.15,3,3.14,2,6.48,3.74,9.66,5.72,2.28,1.41,2.2,2.48.08,4-7.47,5.18-15,10.35-22.34,15.64a4.23,4.23,0,0,1-5.09.35c-9.8-5.08-19.7-10-29.55-15-3.87-2-4.25-4-.68-6.4,3.73-2.55,4.85-5.56,4.69-10.06-.5-13.81-.5-27.64-.57-41.47,0-1.77-.78-2.49-2.14-3.23q-5.14-2.82-10.18-5.87c-2.16-1.31-2.5-3.28-.73-5.1a31.74,31.74,0,0,1,5.2-4.16c6.19-4.06,12.44-8,18.68-12A17.92,17.92,0,0,1,665.36,41.48Z"/><path class="cls-1" d="M664.74,23.22C664.66,13.17,669,7.37,676,3.51c4.5-2.48,9.06-1.2,13.09,1.62,4.21,2.94,5.06,7.34,4.61,12.11-.56,5.88-4.11,10.26-8.06,14.1a60.37,60.37,0,0,1-10.31,7.49c-2.7,1.68-4.66,1-6.28-1.74C666.15,32.33,664.61,27.19,664.74,23.22Z"/><path class="cls-1" d="M184.48,29.84c0-7.35,0-7.34,7.24-7.34,6.67,0,5.73-.26,5.78,5.7,0,2.22,0,4.45,0,6.67,0,1.62-.54,2.53-2.29,2.51-2.94,0-5.88.11-8.8-.09a2.77,2.77,0,0,1-1.87-1.86A40,40,0,0,1,184.48,29.84Z"/></g></g></svg>