<svg xmlns="http://www.w3.org/2000/svg" viewBox="0 0 690.58 110"><defs><style>.cls-1{fill:#394248;}</style></defs><g id="Layer_2" data-name="Layer 2"><g id="Layer_1-2" data-name="Layer 1"><polygon class="cls-1" points="92 0.23 92 0.23 92 0.23 59.59 56.45 27.18 0.23 27.06 0.23 27.06 0.23 0 0.23 0 109.77 27.06 109.77 27.06 54.48 49.6 93.51 53.66 100.47 65.51 100.47 70.62 91.42 92 54.48 92 109.77 119.06 109.77 119.06 0.23 92 0.23"/><path class="cls-1" d="M185.73,70c0-8.24-5.22-14.4-12.77-14.4-7.9,0-13.25,6.74-13.25,14.4,0,8,5.35,14.41,13.25,14.41C180.51,84.45,185.73,78.29,185.73,70Zm-54.82.23c0-23.92,16.38-40.07,33-40.07A27.6,27.6,0,0,1,187,42.05l2.67-9.76H214v75.39H189.68L187,97.92a27.33,27.33,0,0,1-23.11,11.85C147.29,109.88,130.91,93.74,130.91,70.27Z"/><path class="cls-1" d="M284.35,35.54v23c-5.34-3-15.1-5.81-23.35-5.81-4.76,0-7.31.93-7.31,2.79s2.67,3,10,4.65c13,2.79,26,7.43,26,23.81,0,15.8-12.42,25.79-35.08,25.79-11.61,0-21.14-2.67-27.52-6.16V79c6.85,4.53,15.1,8.24,26.25,8.24,5.57,0,8.82-.93,8.82-3,0-2.44-4.06-3.25-13.12-5.57-11.62-3-22.88-8.71-22.88-22.88,0-14.76,12.08-25.56,33.45-25.56C268.55,30.2,278.08,32.18,284.35,35.54Z"/><path class="cls-1" d="M329.3,38.1h.12a27,27,0,0,1,19.4-8c16,0,26,9.76,26,26.72v50.64H346.15V64.23c0-6.15-2.68-8.82-7.9-8.82-5.46,0-8.83,3.6-8.83,8.36v43.56H300.73V0h28.69V38.1Z"/><path class="cls-1" d="M439.42,70c0-8.24-5.23-14.4-12.78-14.4-7.9,0-13.24,6.74-13.24,14.4,0,8,5.34,14.41,13.24,14.41C434.19,84.45,439.42,78.29,439.42,70Zm-54.83.23c0-23.92,16.38-40.07,33-40.07A27.62,27.62,0,0,1,440.7,42.05l2.67-9.76h24.28v75.39H443.37l-2.67-9.76a27.35,27.35,0,0,1-23.12,11.85C401,109.88,384.59,93.74,384.59,70.27Z"/><path class="cls-1" d="M510.27,69.81c0,8.36,5.23,14.4,12.78,14.4,7.78,0,13.13-6.27,13.13-14.28s-5.35-14.52-13.24-14.52C515.39,55.41,510.27,61.56,510.27,69.81Zm.24-28.23c4.29-6.38,13.12-11.5,22.42-11.5,17.3,0,32.05,15.57,32.05,39.73s-16,39.73-33.33,39.73A27.39,27.39,0,0,1,509,97.69l-2.67,9.75H482.05V0h28.57Z"/><rect class="cls-1" x="575.9" width="28.57" height="107.44"/><path class="cls-1" d="M663.72,61.8C663.6,56.57,660.12,52,654,52c-5.58,0-10.22,3.72-12.2,9.76ZM690,77.59H642.81c3.6,7.2,11.85,10.57,20.79,10.57,8.13,0,15.33-2.67,21.95-5.57v21.83a59.65,59.65,0,0,1-26,5.58c-28.81,0-44.49-17-44.49-39.73,0-23.58,16.84-39.95,39-39.95,20.09,0,36.47,13.35,36.47,38.68A43.4,43.4,0,0,1,690,77.59Z"/></g></g></svg>