<svg id="Layer_2" data-name="Layer 2" xmlns="http://www.w3.org/2000/svg" width="530.9" height="147.023" viewBox="0 0 530.9 147.023">
  <g id="Layer_1" data-name="Layer 1">
    <path id="Path_4019" data-name="Path 4019" d="M218.91,0c0,.44-.12.88-.12,1.31V42.08c0,.38.05.77.08,1.34a4.941,4.941,0,0,0,.82-.57c8.09-8.79,18.18-10.55,29.17-7.55,10.55,2.89,15.93,10.78,18.11,21.06a44.261,44.261,0,0,1,1,9c.1,16.63.05,33.26.05,49.89,0,.48-.06,1-.09,1.55H239.45V73.36a25.6,25.6,0,0,0-.87-6.52,8.32,8.32,0,0,0-7.54-6.5c-4-.48-7.45.74-9.77,4.25A16.52,16.52,0,0,0,218.91,74v42.82H190.36V0Z" fill="#394248"/>
    <path id="Path_4020" data-name="Path 4020" d="M530.9.33c-.3.58-.66,1.14-.9,1.74q-14.41,34.71-28.77,69.46a2.5,2.5,0,0,1-2.75,1.89c-10-.08-19.9,0-29.85,0h-2c.33-.85.55-1.46.79-2.06Q481.82,36.64,496.2,1.9a19,19,0,0,0,.52-1.9h32.86a6.34,6.34,0,0,1,1.32.33Z" fill="#394248"/>
    <path id="Path_4021" data-name="Path 4021" d="M153.1,43.37V36.08h27.51v80.73H153.2v-7.18a6.6,6.6,0,0,0-.88.61c-5.22,6-12,8.47-19.74,8.72-17.5.57-32.43-10.24-37.71-27.68-5-16.56-2.44-31.91,9.19-45.09,9.64-10.92,24.9-14.91,37.76-10.37a24.63,24.63,0,0,1,10.33,6.69C152.36,42.73,152.61,42.92,153.1,43.37ZM137,93.22a16.71,16.71,0,1,0-16.88-16.74A16.52,16.52,0,0,0,137,93.22Z" fill="#394248"/>
    <path id="Path_4022" data-name="Path 4022" d="M0,36H29.25a2.06,2.06,0,0,1,2.28,1.57Q40,59.42,48.66,81.31c.23.6.49,1.18.9,2.15.38-.89.62-1.42.83-2Q59,59.62,67.65,37.72a2.37,2.37,0,0,1,2.63-1.81C79,36,87.76,36,96.5,36h2c-.28.76-.44,1.27-.64,1.76Q75.52,91.41,53.26,145.14A2.5,2.5,0,0,1,50.5,147c-8.79-.08-17.58,0-26.38,0H22.21c.28-.76.46-1.31.69-1.84,3.63-8.59,7.24-17.2,11-25.77a4.15,4.15,0,0,0,0-3.59Q17.3,77,.85,38.15C.6,37.55.36,36.93,0,36Z" fill="#394248"/>
    <path id="Path_4023" data-name="Path 4023" d="M452.47,74.32c0,24.6-16.05,42.29-38.34,44.39-15.14,1.43-28.45-2.74-38.39-14.58-10.89-13-12.88-28-6.91-43.59,5.85-15.32,17.76-23.7,33.86-26a43.49,43.49,0,0,1,28.4,5.06C445.4,47.7,452,60.4,452.47,74.32ZM409.06,92.9a16.38,16.38,0,1,0-16.21-16.39A16,16,0,0,0,409.06,92.9Z" fill="#394248"/>
    <path id="Path_4024" data-name="Path 4024" d="M360.78,73.91c0,25-16,42.68-38.38,44.81-14.81,1.4-27.92-2.61-37.83-14-11.21-12.9-13.43-28-7.56-43.76,5.79-15.58,17.78-24.07,34.08-26.45a43.4,43.4,0,0,1,26.78,4.25C353.1,46.66,360.25,59.6,360.78,73.91Zm-43.38,19a16.38,16.38,0,1,0-16.2-16.38A16,16,0,0,0,317.4,92.9Z" fill="#394248"/>
    <path id="Path_4031" data-name="Path 4031" d="M456.17,99.83a19.07,19.07,0,0,1,19.12-19.2,18.27,18.27,0,0,1,18.64,18.53,19,19,0,0,1-19.29,19.19,18.27,18.27,0,0,1-18.47-18.52Z" fill="#394248"/>
  </g>
</svg>
