<svg xmlns="http://www.w3.org/2000/svg" viewBox="0 0 806 123.5"><defs><style>.cls-1{fill:#394248;}</style></defs><g id="Layer_2" data-name="Layer 2"><g id="Layer_2-2" data-name="Layer 2"><path class="cls-1" d="M44.87,38V81.71a25.82,25.82,0,0,0,12-15l.47.24c-1.3,15.59-11.92,31.17-28.45,31.17S0,85.72,0,65.89C0,51,9.68,41.68,22.08,33.3a21.23,21.23,0,0,0-5.55-.71C8,32.59,3.07,38.37,3.07,44.28H2.36a17.17,17.17,0,0,1-.12-2.48c0-10.51,5.55-23.26,19-23.26,8.62,0,15.23,7.91,25.27,7.91,4,0,9-1.89,11-6.26h.35C57.74,27.87,55.38,35.78,44.87,38Zm6.37,44.75C45.34,89,39,94.34,30.7,94.34c-15.35,0-27.16-12-27.16-29.52,0-10.27,4.25-15.82,9-22.31H12c-2.95,3-10.74,10.39-10.74,23,0,19.37,12.16,31.29,28.1,31.29,11.1,0,18.66-7.67,22.08-13.93ZM56,25.51c-2,3.77-6.25,8.61-14.87,8.61s-16.53-5.9-23.5-5.9a14.3,14.3,0,0,0-12.4,7.44l.12.24a15,15,0,0,1,11.22-4.49c9.21,0,15.11,5.67,24.44,5.67,9.92,0,14.4-6.5,15.23-11.45ZM23.14,33.65c-6,6.26-11.57,13.11-11.57,26.45,0,7.32,2.48,14.88,8,19.6L23,77.93V46.29l-3.19,1.65-.59-1.18,16.53-9C31.29,36.84,27.27,34.83,23.14,33.65Zm20.43,4.61a19.63,19.63,0,0,1-2.6.11,20.33,20.33,0,0,1-4.72-.47V72.38L20.78,80.76a19.54,19.54,0,0,0,12,3.78A26.19,26.19,0,0,0,43.57,82.3v-44Zm-17,6-2.25,1.3V77.22L26.57,76Zm67.89,4.49V89.62c0,11.33-10,19-21.26,21.25L73,110.4a15.65,15.65,0,0,0,8.74-14.17V54l-6.38-5.78-2.48,2.71V83.83L76.39,87v.24L66.83,97.65l-11-10v-.47l4.25-4.49V30.46L72.62,17.12l.23.12V48.88L83.12,37.79l10.75,9.68,2-2.13.94.83ZM61.4,87.38v-.24l2.48-2.48V28.46l-2.48,2.6V83.48l-3.78,3.78v.23l9.21,8.27,1.65-1.89ZM85.48,52.07l-7.67-6.61-1.65,1.77L83,53.37V95.88c0,2.83-.59,5.78-1.65,7.43l.12.12c3-2.12,4-5.31,4-9.44V52.07ZM113.23,72.5v6l11.45,9,6.62-7.08.94.94L116.89,97.76,101.31,85.25,99,87.73l-1-1L100.72,84V54.08L123,37.78l11.69,18.9Zm-8.74,10.39v-30L102,54.67v29.4L116.66,96l1.88-2Zm9-36.37-.24.12V70.85l10.51-7.68Zm3.07-2.36-2.13,1.53L124.8,62.34l2.13-1.53Zm95.14,53.49L195.27,83.48,182.76,97.65,165.75,83V59.86h-3.3c-2.95,0-4.49,1.89-5.2,4.14h-.35a18.44,18.44,0,0,1-.59-4.49c0-3.07.83-11.1,9.44-11.1V28.1c0-3.89-4.6-5.43-4.6-10.62,0-6.73,6.38-13.34,18.06-17.48l.48.35c-4.25,2.49-6.5,4.85-6.5,9.92,0,7.8,7.56,5.79,7.56,18.07v4.72l13.82-14.52,14.52,14.28,13.69-14.28,13.23,13V75.21ZM169.53,81.12V56.21h-6.61a4.83,4.83,0,0,0-5.2,4.25l.12.11c1.18-1.29,2.36-2,5.08-2h4.13V82.42l15.59,13.46,1.77-2.13Zm0-54.2c0-4.84-4.25-6.49-4.25-9.56,0-4.25,1.66-7.79,4.25-11.1l-.23-.12c-3.54,2.72-6.85,7.09-6.85,11.34s4.6,6.26,4.6,10v20.9h2.48Zm24.92,11.81-9-8.74-4.72,4.84v41.8l10.74,9.09,3-3.31Zm3.77,42.15V37.08l-10-9.92-1.89,1.89,9.44,9.09v44L211.68,96l1.89-1.77Zm22.91-43.69-7.44-7.08-4.25,4.37v42L221,86.66l.12-.11Zm3.78-1.65-8.62-8.38-1.77,1.89,7.91,7.55V86l2.48-2.36Zm50.17,62.11L263.86,87.49l-10,10.16L241.55,86.78l-1.66,1.77-.94-.94,2.12-2.24V53.73l22.2-16.06L276,47.59l2.25-2.37.94,1-2.59,2.71V81.59l6.25,5.79,2-2.13.94.83L275.08,97.65ZM244.85,84.54V52.66l-2.48,1.77V85.72l11.34,10.16L255.6,94l-10.75-9.45Zm19-31.05-9.68-7.56-.35.24V80.53l8,7,2-2Zm3.78,32.11V51.72l-10-8.15-2.36,1.65,9.92,7.8V86.78l9.92,9,1.77-1.89Zm41.8-26.44H321.6V84.42L302.82,97.65a13.59,13.59,0,0,0-10.39-4.84c-3.54,0-6.37,1.18-10.15,4.37l-.59-.24,16.06-23.38h-9.92v-22l19.72-13.7c2.36,1.89,4.13,3,7.2,3a13.45,13.45,0,0,0,8.39-2.59l.47.23ZM296.21,89.38a14.41,14.41,0,0,0-8.5,2.83v.24A13.4,13.4,0,0,1,303.06,96l2.72-2a11.75,11.75,0,0,0-9.57-4.61Zm12.64-19.83h-6.62l-13.81,20,.12.24c3.42-2.48,6.73-4.13,10.74-4.13a12.31,12.31,0,0,1,9.45,4.48l.12-.12Zm-17.24,0v-19l-2.48,1.77V72.15h9.56l1.89-2.6ZM316.29,46.4c-2.48,1.78-3.9,2.72-8,2.72a10.49,10.49,0,0,1-7.44-3.43l-.24.12V63.05h4.49L316.4,46.52Zm-5.67-1.06A8.54,8.54,0,0,1,304,41.92l-3,2c2.25,2.72,4.37,3.9,7.68,3.9a12.74,12.74,0,0,0,8.38-3.31l.12-.35A18.12,18.12,0,0,1,310.62,45.34Zm2,20.31H305l-1.77,2.48h7V91l2.47-1.78Zm49.71-16.88V89.62c0,11.33-10,19-21.25,21.25l-.24-.47a15.65,15.65,0,0,0,8.74-14.17V54l-6.37-5.78-2.48,2.71V83.83L344.27,87v.24l-9.56,10.39-11-10v-.47L328,82.65V30.46l12.51-13.34.24.12V48.88L351,37.79l10.74,9.68,2-2.13.95.83ZM329.27,87.38v-.24l2.48-2.48V28.46l-2.48,2.59V83.48l-3.78,3.78v.23l9.21,8.27,1.66-1.89Zm24.09-35.31-7.68-6.61L344,47.23l6.85,6.14V95.88c0,2.83-.59,5.78-1.65,7.44l.12.11c2.95-2.12,4-5.31,4-9.44V52.07Zm30.46,45.58-10.15-9.33-2.36,2.48-.95-1,2.72-2.95V52.78l-5-4.72-1.89,2.12-1-.94,10.63-11.57,9.44,8.5,2.37-2.6,1.06.83-2.95,3.19V82.06l5.67,5.32,2.59-2.72,1,1-11.22,12Zm-7-11.57V50.89l-6.14-5.67-1.66,1.89,5.32,5.08V87.26l9.44,8.5,1.77-1.89Zm3.54-49.36-9.68-8.85,8.85-9.45,9.68,8.86Zm-6-10.74-1.77,1.77,7.67,7.2,1.77-2Zm59.37,71.67-10.27-9.33V53.84l-6.26-5.66-3.31,3.54V83.6L417.57,87v.47l-9.68,10.16-11-10v-.35l4.25-4.49V53l-5.55-5.08-2.24,2.48-.95-1,10.75-11.69,10.74,9.57v2.36l11.22-11.93,10.5,9.45L438,44.75l1.06.94-2.83,3V82.41l5.31,5,2.6-2.83.94.94L433.75,97.65ZM402.58,87.38v-.24a21.88,21.88,0,0,0,2.36-2.36V51.24l-6.73-6.14-1.66,1.77,5.91,5.44V83.48l-3.66,3.77v.24l9.09,8.27,1.89-2-7.2-6.37Zm24.67-.95V51.84l-7.32-6.62-1.89,2,6.73,6V87.61l8.86,8.27,1.89-2-8.27-7.44ZM467,118.9c-3.89-4.25-6.61-6-10.27-6-3.89,0-8.38,1.53-13,4l-.35-.35,16.29-18.89-11.57-9.21-2.24,2.36L445,90l2.59-2.83V53.73L470,37.67l12.51,9.92,2.13-2.37.94,1-2.48,2.71V89.27c0,6.14,3.43,5.9,3.43,10.5C486.53,105.09,478.85,110,467,118.9Zm-15.7-32.71V52.78l-2.48,1.77V87.26l11.69,9.44,1.77-2.12Zm8.27,23.62a18.77,18.77,0,0,0-10.75,3.42v.24a20.56,20.56,0,0,1,8.5-1.89c3.66,0,6.73,2,9.8,5.55l2.36-1.89c-2.95-3.42-6.49-5.43-9.91-5.43ZM474,98.47c-2.95-1.89-3.66-3.89-3.66-9V87.37L450.75,110l.12.12c3.78-2.24,7.2-3.89,12.75-3.89,4.72,0,7.91,1.88,11.57,5,2.25-1.89,3.78-3.77,3.78-6.73,0-2.36-2-4.13-5-6Zm-3.66-45-9.8-7.67-.24.23V82.3l7.56,5.9,2.48-2.83Zm7.2,43.33c-3.07-2.36-3.42-4.37-3.42-9.44V51.48l-9.92-8L462,45l9.68,7.67V89c0,5.07.24,6.49,3.42,8.62,2.84,1.89,5.08,3.89,5.08,6.61,0,.71-.12,1.89-.12,1.89l.12.12a4.19,4.19,0,0,0,1.3-3.08C481.45,100.6,480.15,98.83,477.55,96.82Zm28.34.83L495,89.15l-2.25,2.48-.94-.95,2.6-2.83V46.52h-6.85l-.24-.23,4.13-6.15h2.95v-7.9L507,18.89l.24.24v21h9.44l.24.23-4.13,6.14h-5.55V82.3l6.49,5,2.48-2.72,1,.95Zm-7.67-67.42-2.48,2.71v7.21h2.48Zm0,56.44V46.52h-2.48V88.08l10,7.8L507.54,94l-9.32-7.32ZM555.71,50V83l-20,14.75-15-11.33-1.77,2-.94-1,2.12-2.36V52.78l20.9-15L555,48.65l2.24-2.36.94.94L555.71,50ZM524,84V51.72l-2.49,1.77V85.25l14.17,10.86,2.25-1.65L524,84Zm19-30.11-9.91-7.79-.12.12V81.35l10,7.56V53.84Zm3.78-2.12-11-8.5-2.24,1.65,10.74,8.26V89.85L546.74,88V51.72Zm54.08,45.93-10.27-9.33V53.84l-6.26-5.66L581,51.72V83.6L584.64,87v.47L575,97.65l-11-10v-.35l4.25-4.49V53l-5.55-5.08-2.24,2.48-1-1,10.75-11.69L581,47.35v2.36L592.2,37.78l10.51,9.45,2.36-2.48,1.06.94-2.83,3V82.41l5.31,5,2.6-2.83.94.94ZM569.65,87.38v-.24A21.88,21.88,0,0,0,572,84.78V51.24l-6.73-6.14-1.65,1.77,5.9,5.44V83.48l-3.66,3.77v.24L575,95.76l1.89-2-7.2-6.37Zm24.67-.95V51.84L587,45.22l-1.88,2,6.72,6V87.61l8.86,8.27,1.89-2Zm79.44,11.22c-3.31-3.55-4.49-4.73-8.38-5.79V115l-.24.12-4.72-4.25-13.7,12.63-.24-.12V91.63a26,26,0,0,0-12.75,7.31l-.23-.11c.82-9.09,5.31-15.82,13-18.42v-23H644c-3.42,0-5.31,1.78-7,5h-.36a18,18,0,0,1-.59-5.43c0-5,3.66-10.15,9.68-10.15h.71V34l-4.84-4.37L639.28,32l-.83-.83,11.93-12.63,11.1,10.15V39.44l2.59-2.84V23h1.3V35.42l15.7-16.88L694.42,30.7V82.06L673.76,97.65ZM646.49,87.26A15.26,15.26,0,0,0,636,95.05l.12.24a22.41,22.41,0,0,1,10.39-5.08V87.26Zm3.78-33.89h-6.5c-4.49,0-6.26,2.84-6.37,6.14l.11.12c1.42-2.36,2.84-3.19,5.67-3.54h4.61v64.35l2.48-2.37Zm0-21.25-5.91-5.43-1.89,2,5.32,4.73V46.76h2.48V32.12Zm13.81,6.73-2.6,2.71v68.37l2.6,2.36Zm15.47-2.72-7-6.37-7.2,7.79V79.11c6.14.59,10.39,2.36,14,6.38l.12-.12ZM665.38,87.26v3.07c4,.94,5.67,2.12,8.5,5.43l2.72-2.13c-2.84-3.54-5.67-5.66-11.22-6.37Zm18-53-8-7.44-1.89,2,7.44,6.85v54.9l2.48-1.89ZM735.63,50V83l-20,14.75-15-11.33-1.77,2-.95-1,2.13-2.36V52.78l20.9-15,13.93,10.87,2.24-2.36,1,.94ZM703.87,84V51.72l-2.48,1.77V85.25l14.17,10.86,2.24-1.65L703.87,84Zm19-30.11L713,46.05l-.12.12V81.35l10,7.56V53.84Zm3.78-2.12-11-8.5-2.25,1.65,10.75,8.26V89.85L726.66,88V51.72ZM763,59.16h12.16V84.42L756.41,97.65A13.6,13.6,0,0,0,746,92.81c-3.54,0-6.37,1.18-10.15,4.37l-.59-.24,16.05-23.38h-9.92v-22l19.72-13.7c2.37,1.89,4.14,3,7.21,3a13.42,13.42,0,0,0,8.38-2.59l.47.23L763,59.16ZM749.8,89.38a14.41,14.41,0,0,0-8.5,2.83v.24A13.4,13.4,0,0,1,756.65,96l2.71-2A11.73,11.73,0,0,0,749.8,89.38Zm12.63-19.83h-6.61L742,89.5l.11.24c3.43-2.48,6.73-4.13,10.75-4.13a12.31,12.31,0,0,1,9.45,4.48l.11-.12V69.55Zm-17.23,0v-19l-2.49,1.77V72.15h9.57l1.89-2.6ZM769.87,46.4c-2.48,1.78-3.89,2.72-8,2.72a10.51,10.51,0,0,1-7.44-3.43l-.23.12V63.05h4.48L770,46.52l-.12-.12Zm-5.67-1.06a8.56,8.56,0,0,1-6.61-3.42l-3,2c2.24,2.72,4.37,3.9,7.68,3.9a12.74,12.74,0,0,0,8.38-3.31l.12-.35a18.14,18.14,0,0,1-6.62,1.18Zm2,20.31h-7.67l-1.77,2.48h7V91l2.48-1.78V65.65Zm28.57,32-10.86-8.5-2.24,2.48-.95-.95,2.6-2.83V46.52h-6.85l-.23-.23,4.13-6.15h3v-7.9l12.52-13.35.23.24v21h9.45l.23.23-4.13,6.14h-5.55V82.3l6.5,5,2.48-2.72.94.95L794.78,97.65Zm-7.67-67.42-2.48,2.71v7.21h2.48Zm0,56.44V46.52h-2.48V88.08l10,7.8L796.44,94l-9.33-7.32Z"/></g></g></svg>