<svg xmlns="http://www.w3.org/2000/svg" viewBox="0 0 582.54 87.71"><defs><style>.cls-1{fill:#394248;}</style></defs><g id="Layer_2" data-name="Layer 2"><g id="Layer_2-2" data-name="Layer 2"><path class="cls-1" d="M317.94,86.63V1.87a5.73,5.73,0,0,1,1.36-.31c12.24.09,24.51-.27,36.71.43,18.7,1.09,32.69,14.55,35.33,33,1.31,9.21.93,18.3-2.55,27-5.36,13.44-15.47,21.76-29.74,23.25C345.54,86.72,331.83,86.26,317.94,86.63Zm14.4-13.33c7.33,0,14.38.41,21.37-.1,11.92-.87,20-7.92,22.72-19.3a41.32,41.32,0,0,0-.35-21.29c-3-10.56-10.9-17.36-21.89-18.1-7-.47-14-.15-21.07-.17-.24,0-.48.24-.78.39Z"/><path class="cls-1" d="M582.54,86.27c-5.54,0-10.19.11-14.83-.08a4.84,4.84,0,0,1-3-1.69c-8.74-10-17.45-20-26-30.06-1.62-1.91-3.24-2.88-5.76-2.64-2.15.2-4.34,0-6.86,0V86.1H511.8V2c.26-.15.42-.33.58-.33,11.77.08,23.58-.37,35.31.39,20,1.28,30.46,20.9,21.07,38.64-2.9,5.48-7.69,8.43-13.52,10-1,.26-2,.5-3.31.84l15.15,17.25ZM526.14,39.9c6,0,11.63,0,17.3,0a18.3,18.3,0,0,0,3.37-.44c6.85-1.37,10.57-5.87,10.53-12.68s-4-11.63-10.85-12.31c-6.56-.65-13.23-.33-19.84-.42-.14,0-.28.23-.51.43Z"/><path class="cls-1" d="M72.25,31.15V86.06H58.6V.58L117,55.68V1.76h13.72v85.5Z"/><path class="cls-1" d="M425.15,1.72H476.6V14.11H439.3V34.64h33.33V47.11H439.36V73.3h37.18V86.1H425.15Z"/><path class="cls-1" d="M221.53,20.58c-5.71-2.37-11.21-5.08-17-6.92a25.18,25.18,0,0,0-15.43.12c-4.1,1.31-7,3.75-7.44,8.31a9,9,0,0,0,5.82,9.74c5.92,2.51,12,4.57,18,6.93A71,71,0,0,1,214,42.6c8.8,4.88,12.49,12.64,11.89,22.42s-5.95,16.45-15,19.74c-14.1,5.11-27.79,3.39-40.9-3.58a3.17,3.17,0,0,1-1.58-2.06c-.14-4.4-.07-8.81-.07-13,5.09,2.38,9.88,5,15,6.88a34.22,34.22,0,0,0,18.53,1.32c5.92-1.18,9.53-4.48,10-9,.6-5.49-1.47-9.09-7.41-11.69-5-2.19-10.31-3.78-15.38-5.89a82.12,82.12,0,0,1-12-5.76c-12.65-7.89-13.65-30.15,2.25-37.85C193.25-2.55,207-.67,220.25,6.38a3,3,0,0,1,1.22,2.21C221.59,12.74,221.53,16.89,221.53,20.58Z"/><path class="cls-1" d="M14,86.12H0V1.76H14Z"/><path class="cls-1" d="M272.8,86.13h-14V1.76h14Z"/></g></g></svg>