<svg xmlns="http://www.w3.org/2000/svg" viewBox="0 0 64.95 22.86"><defs><style>.cls-1{fill:#394248;}</style></defs><g id="Layer_2" data-name="Layer 2"><g id="Layer_1-2" data-name="Layer 1"><path class="cls-1" d="M25.09,6.69a2.23,2.23,0,0,0-1.32-.8h-.32V5.62h.27l1.68.06c.23,0,.89-.06,1-.06h.28L33.32,13V7.17c0-.92-.4-1.28-1.4-1.28h-.3V5.62h.31l1.65.06,1.36-.06h.19l0,.27C34.23,6,34,6.21,34,7v9.16h-.31l-7.9-8.77V14c0,1.38.31,1.75,1.46,1.75h.29v.3h-.33L25.47,16,24,16.07h-.28v-.3c1.17-.1,1.41-.3,1.41-1.15V6.69Zm12,.11c0-.69-.26-.91-1.08-.91h-.26V5.62h.68l3,.06,3.3-.06h.7l0,2.28h-.27c0-1.19-.58-1.67-1.79-1.67H39v4h2.1A1.26,1.26,0,0,0,42.45,9l.31,0v3.18h-.29c-.14-1-.64-1.39-1.86-1.39H39v3.67c0,.61.29.91.88.91h1.74A2.49,2.49,0,0,0,44,13.84h.31l-.73,2.23c-.5,0-2.9-.06-3.69-.06-.54,0-3.13,0-3.73.06h-.45v-.3H36c.82,0,1.08-.22,1.08-.92v-8Zm16.7,9.41h-.49l-2-5.51-2,5.51h-.47L45.4,7c-.26-.71-.5-1-1-1.08V5.62h.3l1.37.06,1.4-.06h.31v.27c-.51,0-.72.16-.72.45a2.4,2.4,0,0,0,.14.64l2.39,6.55L51,9.79,50.1,7.28c-.39-1.08-.72-1.37-1.55-1.39V5.62h.28c.24,0,1.49.06,1.79.06l1.77-.06h.42v.27h-.42c-.57,0-.85.15-.85.45a2.33,2.33,0,0,0,.18.72L54,13.59l1.83-5.53a5.82,5.82,0,0,0,.33-1.46c0-.49-.25-.71-.79-.71h-.31V5.62h.09c.24,0,.85.06,1.22.06.17,0,.85-.06,1.18-.06h.12v.27c-.44.13-.66.45-1,1.53l-2.92,8.79Zm4-2.56a2.81,2.81,0,0,0,1,1.36A3.59,3.59,0,0,0,61,15.7c1.5,0,2.5-.8,2.5-1.95,0-.85-.48-1.31-2.28-2.17A8.62,8.62,0,0,1,58.68,10a2.54,2.54,0,0,1-.76-1.82c0-1.63,1.3-2.71,3.26-2.71a7.79,7.79,0,0,1,1.94.27,3.21,3.21,0,0,0,.71.1c.14,0,.21,0,.26-.15h.3l0,2.23h-.25a2.71,2.71,0,0,0-.49-1,2.78,2.78,0,0,0-2.24-.91c-1.24,0-2.06.61-2.06,1.51s.47,1.22,2.13,2C63.66,10.42,65,11.33,65,13c0,1.91-1.54,3.2-3.81,3.2A8,8,0,0,1,59.31,16a3.42,3.42,0,0,0-.63-.09.42.42,0,0,0-.41.2H58l0-.25c-.12-.7-.26-1.39-.42-2.09l.26-.09ZM4,9.72a1.77,1.77,0,0,0-.73.16A1.68,1.68,0,1,0,4,9.71Zm7.26,0a1.71,1.71,0,1,0,1.68,1.71,1.7,1.7,0,0,0-1.68-1.71Z"/><path class="cls-1" d="M18.47,14.86a3.43,3.43,0,1,1,3.28-4.21H20a1.69,1.69,0,1,0-1.5,2.49A1.66,1.66,0,0,0,20,12.2h1.78a3.38,3.38,0,0,1-3.28,2.67Zm-7.24,0a3.4,3.4,0,0,1-3.37-3.41l0-6h1.7V8.67A2.75,2.75,0,0,1,11.23,8a3.43,3.43,0,0,1,0,6.86Zm-5.55,0V14a2.71,2.71,0,0,1-1.83.86A3.3,3.3,0,0,1,.6,11.43,3.4,3.4,0,0,1,4,8a3.34,3.34,0,0,1,.84.11,3.42,3.42,0,0,1,2.53,3.32h0l0,3.42ZM11.23,0A11.33,11.33,0,0,0,0,11.43,11.33,11.33,0,0,0,11.23,22.86,11.33,11.33,0,0,0,22.46,11.43,11.33,11.33,0,0,0,11.23,0Z"/></g></g></svg>