<svg aria-hidden="true" style="position: absolute; width: 0; height: 0; overflow: hidden;" version="1.1" xmlns="http://www.w3.org/2000/svg" xmlns:xlink="http://www.w3.org/1999/xlink">
<defs>
<symbol id="icon-bitrise" viewBox="0 0 32 32">
<path fill="#683d87" style="fill: var(--color1, #683d87)" d="M16 23.867c2 0 3.6-1.6 3.6-3.6h-7.2c0 2 1.6 3.6 3.6 3.6zM8 16c-1.2 0-2.133 0.933-2.133 2.133h4.4c0-1.2-1.067-2.133-2.267-2.133zM16 5.467c0.8 0 1.333-0.667 1.333-1.333 0-0.8-0.667-1.333-1.333-1.333-0.8 0-1.333 0.667-1.333 1.333 0 0.8 0.533 1.333 1.333 1.333zM31.333 17.867c-0.4-2.533-0.933-5.067-1.333-6.667-0.533-2-2.133-3.467-4.267-3.6-2-0.133-5.333-0.267-9.867-0.267-4.4 0-7.733 0.133-9.867 0.267-1.867 0.133-3.6 1.6-4 3.6-0.4 1.733-0.933 4.267-1.333 6.667-0.267 1.733-0.4 3.733-0.667 6-0.133 1.2 0.267 2.533 1.2 3.467 0.8 0.933 2 1.467 3.2 1.6 2.8 0.133 7.067 0.267 11.6 0.267s8.8-0.133 11.6-0.267c1.2 0 2.4-0.667 3.2-1.6s1.2-2.133 1.2-3.467c-0.133-2.267-0.4-4.267-0.667-6zM29.2 25.733c-0.4 0.533-1.067 0.8-1.733 0.8-2.8 0.133-6.933 0.267-11.467 0.267s-8.667-0.133-11.467-0.267c-0.667 0-1.333-0.267-1.733-0.8s-0.667-1.067-0.667-1.733c0.133-2.133 0.267-4.133 0.533-5.733 0.4-2.4 0.933-4.933 1.333-6.533 0.267-1.067 1.2-1.867 2.267-1.867 2-0.267 5.333-0.4 9.733-0.4s7.733 0.133 9.733 0.267c1.067 0 2 0.8 2.267 1.867 0.4 1.6 0.933 4.133 1.333 6.533 0.267 1.6 0.4 3.6 0.533 5.733 0 0.8-0.267 1.333-0.667 1.867zM24 16c-1.2 0-2.133 0.933-2.133 2.133h4.4c-0.133-1.2-1.067-2.133-2.267-2.133z"></path>
</symbol>
<symbol id="icon-blogger" viewBox="0 0 32 32">
<path fill="#ff5722" style="fill: var(--color2, #ff5722)" d="M29.301 32h-26.6c-1.501 0-2.701-1.2-2.701-2.699v-26.6c0-1.501 1.2-2.701 2.7-2.701h26.7c1.4 0 2.6 1.2 2.6 2.7v26.6c0 1.5-1.2 2.7-2.699 2.7zM16 5.3h-4c-3.7 0-6.7 3-6.7 6.7v8c0 3.699 3 6.699 6.7 6.699h8c3.699 0 6.699-3 6.699-6.699v-5.3c0-0.8-0.6-1.4-1.4-1.4h-1.299c-0.699 0-1.301-0.6-1.301-1.301 0-3.701-3-6.701-6.699-6.699zM20.099 21.3h-8.099c-0.7 0-1.3-0.6-1.3-1.3s0.6-1.301 1.3-1.301h8.099c0.701 0 1.303 0.6 1.303 1.301s-0.6 1.301-1.303 1.3zM16.699 10.7c0.703 0 1.301 0.6 1.301 1.3s-0.6 1.3-1.3 1.3h-4.8c-0.7 0-1.301-0.6-1.301-1.3s0.6-1.3 1.3-1.3z"></path>
</symbol>
<symbol id="icon-bower" viewBox="0 0 32 32">
<path fill="#ef5734" style="fill: var(--color3, #ef5734)" d="M31.389 15.074c-1.645-1.582-9.876-2.569-12.473-2.856 0.126-0.297 0.233-0.605 0.322-0.921 0.355-0.155 0.736-0.299 1.131-0.42 0.048 0.143 0.275 0.687 0.404 0.945 5.222 0.144 5.491-3.88 5.703-4.984 0.208-1.078 0.198-2.12 1.989-4.025-2.668-0.778-6.506 1.205-7.792 4.157-0.483-0.181-0.968-0.315-1.447-0.397-0.343-1.384-2.13-5.241-6.819-5.241-3.037 0-6.1 1.254-8.402 3.441-1.24 1.178-2.215 2.577-2.897 4.159-0.736 1.708-1.109 3.588-1.109 5.59 0 6.97 4.758 13.077 7.446 13.077 1.174 0 2.184-0.879 2.421-1.667 0.199 0.541 0.808 2.221 1.009 2.647 0.297 0.633 1.665 1.18 2.264 0.523 0.77 0.428 2.184 0.685 2.954-0.456 1.483 0.314 2.796-0.571 2.824-1.627 0.727-0.038 1.085-1.061 0.927-1.875-0.117-0.599-1.369-2.75-1.858-3.492 0.966 0.787 3.416 1.009 3.712 0 1.558 1.223 3.988 0.582 4.18-0.414 1.894 0.492 4.065-0.589 3.709-1.897 3.043-0.21 2.654-3.447 1.8-4.267zM23.465 9.709c-0.801-0.315-1.817-0.514-2.529-0.514-1.010 0-1.626 0.572-2.577 0.572-0.199 0-0.675 0.001-1.058-0.136 0.251 0.264 0.564 0.407 1.17 0.407 0.362 0 1.079-0.185 1.66-0.359 0.008 0.123 0.021 0.243 0.038 0.364-1.088 0.26-2.229 0.952-2.56 1.131-0.735-1.623-0.103-3.157 0.48-3.865 2.616 0.006 4.73 1.803 5.376 2.399zM24.598 9.587l-0.4-0.374c-0.411-0.386-0.839-0.733-1.28-1.043 0.655-1.3 1.479-2.719 2.519-3.598-1.144 0.462-2.276 1.841-2.944 3.314-0.34-0.216-0.687-0.41-1.035-0.578 0.932-1.99 3.098-3.652 5.485-3.781-1.599 1.451-0.999 4.344-2.346 6.059zM21.313 10.943c-0.177-0.383-0.354-1.016-0.333-1.389 0.297-0.007 0.867 0.105 0.958 0.126-0.035 0.175-0.054 0.559-0.054 0.609 0.057-0.097 0.213-0.432 0.277-0.565 0.571 0.109 1.321 0.291 1.76 0.496-0.517 0.335-1.393 0.699-2.608 0.724zM11.883 8.34c-0.646-0.232-0.646-0.815 0-1.046s1.459 0.059 1.459 0.523-0.813 0.755-1.459 0.523zM14.038 8.557c0-1.28-1.395-2.084-2.505-1.444s-1.11 2.249 0 2.889c1.11 0.64 2.505-0.164 2.505-1.444zM17.749 6.457c-2.086 2.115-1.263 4.79-0.503 5.998-1.081 1.798-3.205 3.027-5.673 3.587 2.77 0 4.4-0.713 5.348-1.411 0.605-0.446 0.932-0.886 1.1-1.13 4.108 0.266 10.611 1.589 11.246 2.017 0.254 0.172 0.517 0.552 0.557 0.917-3.087-0.432-8.651-0.887-10.107-0.963 1.034 0.147 8.577 1.575 9.885 1.91-0.398 0.648-1.305 1.107-2.671 0.788 0.739 1.006-0.695 2.212-2.692 1.548 0.439 0.987-1.338 1.876-3.359 0.848 0.025 0.987-2.507 1.102-3.507 0.010 0.020 0.13 0.138 0.379 0.189 0.489-0.322 2.885-2.685 4.674-5.105 4.674-5.924 0-11.086-4.813-11.086-11.215 0-6.768 5.002-11.819 11.038-11.819 3.458 0 5.020 2.722 5.341 3.753z"></path>
</symbol>
<symbol id="icon-co-op" viewBox="0 0 32 32">
<path fill="#00b1e7" style="fill: var(--color4, #00b1e7)" d="M31.033 7.020c0-1.136-0.176-2.271-0.48-3.407-0.437-1.355-1.441-2.445-2.708-2.925-1.21-0.436-2.606-0.688-4.061-0.688s-2.851 0.252-4.147 0.715l0.086-0.027c-1.331 0.47-2.339 1.55-2.7 2.896l-0.007 0.030c-0.291 1.015-0.459 2.18-0.459 3.385s0.168 2.37 0.481 3.474l-0.022-0.090c0.435 1.353 1.44 2.445 2.707 2.925 1.101 0.418 2.375 0.661 3.705 0.661 0.125 0 0.25-0.002 0.374-0.006l-0.018 0.001c1.399 0 2.751-0.261 4.061-0.655 1.331-0.47 2.34-1.55 2.701-2.896l0.007-0.030c0.305-1.092 0.48-2.227 0.48-3.363zM26.623 7.020c0 0.524-0.087 1.136-0.261 1.616-0.219 0.699-0.831 1.267-1.573 1.441-0.315 0.062-0.677 0.098-1.047 0.098s-0.732-0.036-1.083-0.104l0.036 0.006c-0.767-0.133-1.375-0.696-1.57-1.428l-0.003-0.014c-0.167-0.496-0.263-1.066-0.263-1.659s0.096-1.164 0.274-1.697l-0.011 0.038c0.217-0.699 0.829-1.267 1.573-1.441 0.315-0.062 0.677-0.098 1.047-0.098s0.732 0.036 1.083 0.104l-0.036-0.006c0.767 0.134 1.374 0.697 1.57 1.428l0.003 0.014c0.173 0.611 0.261 1.179 0.261 1.703zM14.963 25.407c0.291-1.015 0.458-2.18 0.458-3.385s-0.167-2.37-0.48-3.474l0.022 0.090c-0.436-1.355-1.441-2.445-2.707-2.927-1.21-0.436-2.606-0.688-4.061-0.688s-2.851 0.252-4.147 0.715l0.086-0.027c-1.331 0.471-2.34 1.551-2.701 2.897l-0.007 0.030c-0.291 1.015-0.458 2.18-0.458 3.385s0.167 2.37 0.48 3.474l-0.022-0.090c0.437 1.353 1.441 2.445 2.708 2.924 1.21 0.436 2.606 0.688 4.061 0.688s2.851-0.252 4.147-0.715l-0.086 0.027c1.303-0.512 2.294-1.574 2.698-2.892l0.008-0.032zM11.032 22.043c0 0.524-0.088 1.136-0.263 1.616-0.243 0.718-0.829 1.26-1.557 1.438l-0.015 0.003c-0.315 0.062-0.677 0.098-1.048 0.098s-0.733-0.036-1.084-0.104l0.036 0.006c-0.766-0.135-1.372-0.697-1.569-1.428l-0.003-0.014c-0.166-0.496-0.262-1.066-0.262-1.659s0.096-1.164 0.273-1.697l-0.011 0.038c0.243-0.718 0.828-1.261 1.557-1.438l0.015-0.003c0.315-0.063 0.677-0.099 1.048-0.099s0.733 0.036 1.083 0.105l-0.035-0.006c0.766 0.135 1.372 0.697 1.569 1.428l0.003 0.014c0.175 0.568 0.263 1.135 0.263 1.703zM11.032 6.976h4.411c0-1.135-0.175-2.271-0.48-3.361-0.436-1.355-1.441-2.445-2.707-2.925-1.21-0.436-2.606-0.688-4.061-0.688s-2.851 0.252-4.147 0.715l0.086-0.027c-1.355 0.523-2.359 1.615-2.709 2.968-0.291 1.015-0.458 2.18-0.458 3.385s0.167 2.37 0.48 3.474l-0.022-0.090c0.437 1.353 1.441 2.445 2.708 2.925 1.309 0.48 2.664 0.656 4.061 0.656s2.751-0.263 4.061-0.656c1.331-0.47 2.339-1.551 2.7-2.896l0.007-0.030c0.044-0.175 0.087-0.393 0.175-0.568l-4.148-1.921c-0.044 0.261-0.087 0.48-0.175 0.743-0.217 0.699-0.829 1.267-1.572 1.441-0.315 0.062-0.677 0.098-1.048 0.098s-0.733-0.036-1.084-0.104l0.036 0.006c-0.766-0.135-1.372-0.697-1.569-1.428l-0.003-0.014c-0.166-0.496-0.262-1.066-0.262-1.659s0.096-1.164 0.273-1.697l-0.011 0.038c0.219-0.699 0.829-1.267 1.572-1.443 0.315-0.062 0.677-0.098 1.048-0.098s0.733 0.036 1.084 0.104l-0.036-0.006c0.767 0.135 1.373 0.698 1.569 1.429l0.003 0.014c0.131 0.567 0.219 1.091 0.219 1.615zM16.927 18.681c-0.301 1.020-0.476 2.192-0.48 3.405v9.914h4.411v-9.957c0-0.524 0.087-1.136 0.261-1.616 0.217-0.699 0.829-1.267 1.573-1.441 0.315-0.063 0.677-0.099 1.047-0.099s0.732 0.036 1.083 0.105l-0.035-0.006c0.766 0.135 1.373 0.697 1.57 1.428l0.003 0.014c0.166 0.496 0.262 1.066 0.262 1.659s-0.096 1.164-0.273 1.697l0.011-0.038c-0.219 0.697-0.831 1.267-1.528 1.44-0.315 0.063-0.677 0.099-1.048 0.099s-0.733-0.036-1.083-0.105l0.035 0.006c-0.132-0.041-0.305-0.085-0.436-0.131l1.484 4.105c1.399 0 2.751-0.263 4.061-0.655 1.331-0.471 2.339-1.551 2.701-2.896l0.007-0.030c0.291-1.015 0.458-2.18 0.458-3.385s-0.167-2.37-0.48-3.474l0.022 0.090c-0.437-1.355-1.441-2.445-2.708-2.927-1.21-0.436-2.606-0.688-4.061-0.688s-2.851 0.252-4.147 0.715l0.086-0.027c-1.355 0.351-2.359 1.443-2.796 2.797z"></path>
</symbol>
<symbol id="icon-play" viewBox="0 0 32 32">
<path d="M30.662 5.003c-4.488-0.645-9.448-1.003-14.662-1.003s-10.174 0.358-14.662 1.003c-0.86 3.366-1.338 7.086-1.338 10.997s0.477 7.63 1.338 10.997c4.489 0.645 9.448 1.003 14.662 1.003s10.174-0.358 14.662-1.003c0.86-3.366 1.338-7.086 1.338-10.997s-0.477-7.63-1.338-10.997zM12 22v-12l10 6-10 6z"></path>
</symbol>
<symbol id="icon-film" viewBox="0 0 32 32">
<path d="M0 4v24h32v-24h-32zM6 26h-4v-4h4v4zM6 18h-4v-4h4v4zM6 10h-4v-4h4v4zM24 26h-16v-20h16v20zM30 26h-4v-4h4v4zM30 18h-4v-4h4v4zM30 10h-4v-4h4v4zM12 10v12l8-6z"></path>
</symbol>
<symbol id="icon-video-camera" viewBox="0 0 32 32">
<path d="M12 9c0-2.761 2.239-5 5-5s5 2.239 5 5c0 2.761-2.239 5-5 5s-5-2.239-5-5zM0 9c0-2.761 2.239-5 5-5s5 2.239 5 5c0 2.761-2.239 5-5 5s-5-2.239-5-5zM24 19v-3c0-1.1-0.9-2-2-2h-20c-1.1 0-2 0.9-2 2v10c0 1.1 0.9 2 2 2h20c1.1 0 2-0.9 2-2v-3l8 5v-14l-8 5zM20 24h-16v-6h16v6z"></path>
</symbol>
</defs>
</svg>
